<svg width="27" height="10" viewBox="0 0 27 10" fill="none" xmlns="http://www.w3.org/2000/svg">
<path d="M2.88772 2.3229C2.41257 2.82305 2.17499 3.69833 2.17499 4.94872C2.17499 6.19912 2.41257 7.07439 2.88772 7.57455C3.22115 7.92466 3.65046 8.09972 4.17562 8.09972C4.70079 8.09972 5.13009 7.92466 5.46353 7.57455C5.93868 7.07439 6.17625 6.19912 6.17625 4.94872C6.17625 3.69833 5.93868 2.82305 5.46353 2.3229C5.13009 1.97279 4.70079 1.79773 4.17562 1.79773C3.65046 1.79773 3.22115 1.97279 2.88772 2.3229ZM1.68734 7.88715C1.20385 7.17026 0.962108 6.19078 0.962108 4.94872C0.962108 3.70667 1.20385 2.72719 1.68734 2.0103C2.26252 1.14336 3.09195 0.709887 4.17562 0.709887C5.2593 0.709887 6.08872 1.14336 6.66391 2.0103C7.14739 2.72719 7.38913 3.70667 7.38913 4.94872C7.38913 6.19078 7.14739 7.17026 6.66391 7.88715C6.08872 8.75409 5.2593 9.18756 4.17562 9.18756C3.09195 9.18756 2.26252 8.75409 1.68734 7.88715ZM9.21793 8.81244C9.05121 8.64572 8.96785 8.44149 8.96785 8.19975C8.96785 7.958 9.05121 7.75377 9.21793 7.58705C9.38465 7.412 9.58888 7.32447 9.83062 7.32447C10.0724 7.32447 10.2766 7.412 10.4433 7.58705C10.6184 7.75377 10.7059 7.958 10.7059 8.19975C10.7059 8.44149 10.6184 8.64572 10.4433 8.81244C10.2766 8.97916 10.0724 9.06252 9.83062 9.06252C9.58888 9.06252 9.38465 8.97916 9.21793 8.81244ZM9.20543 4.41105C9.03871 4.24433 8.95535 4.0401 8.95535 3.79836C8.95535 3.55662 9.03871 3.35239 9.20543 3.18567C9.37215 3.01061 9.57638 2.92308 9.81812 2.92308C10.0599 2.92308 10.2641 3.01061 10.4308 3.18567C10.6059 3.35239 10.6934 3.55662 10.6934 3.79836C10.6934 4.0401 10.6059 4.24433 10.4308 4.41105C10.2641 4.57777 10.0599 4.66113 9.81812 4.66113C9.57638 4.66113 9.37215 4.57777 9.20543 4.41105ZM14.195 2.3229C13.7198 2.82305 13.4823 3.69833 13.4823 4.94872C13.4823 6.19912 13.7198 7.07439 14.195 7.57455C14.5284 7.92466 14.9577 8.09972 15.4829 8.09972C16.0081 8.09972 16.4374 7.92466 16.7708 7.57455C17.246 7.07439 17.4835 6.19912 17.4835 4.94872C17.4835 3.69833 17.246 2.82305 16.7708 2.3229C16.4374 1.97279 16.0081 1.79773 15.4829 1.79773C14.9577 1.79773 14.5284 1.97279 14.195 2.3229ZM12.9946 7.88715C12.5111 7.17026 12.2694 6.19078 12.2694 4.94872C12.2694 3.70667 12.5111 2.72719 12.9946 2.0103C13.5698 1.14336 14.3992 0.709887 15.4829 0.709887C16.5666 0.709887 17.396 1.14336 17.9712 2.0103C18.4547 2.72719 18.6964 3.70667 18.6964 4.94872C18.6964 6.19078 18.4547 7.17026 17.9712 7.88715C17.396 8.75409 16.5666 9.18756 15.4829 9.18756C14.3992 9.18756 13.5698 8.75409 12.9946 7.88715ZM21.8146 2.3229C21.3394 2.82305 21.1019 3.69833 21.1019 4.94872C21.1019 6.19912 21.3394 7.07439 21.8146 7.57455C22.148 7.92466 22.5773 8.09972 23.1025 8.09972C23.6276 8.09972 24.057 7.92466 24.3904 7.57455C24.8655 7.07439 25.1031 6.19912 25.1031 4.94872C25.1031 3.69833 24.8655 2.82305 24.3904 2.3229C24.057 1.97279 23.6276 1.79773 23.1025 1.79773C22.5773 1.79773 22.148 1.97279 21.8146 2.3229ZM20.6142 7.88715C20.1307 7.17026 19.889 6.19078 19.889 4.94872C19.889 3.70667 20.1307 2.72719 20.6142 2.0103C21.1894 1.14336 22.0188 0.709887 23.1025 0.709887C24.1862 0.709887 25.0156 1.14336 25.5908 2.0103C26.0743 2.72719 26.316 3.70667 26.316 4.94872C26.316 6.19078 26.0743 7.17026 25.5908 7.88715C25.0156 8.75409 24.1862 9.18756 23.1025 9.18756C22.0188 9.18756 21.1894 8.75409 20.6142 7.88715Z" fill="#B3B3B3"/>
</svg>
