<svg width="25" height="10" viewBox="0 0 25 10" fill="none" xmlns="http://www.w3.org/2000/svg">
<path d="M2.01578 3.81086L0.790396 3.66082C0.78206 3.58579 0.777892 3.47743 0.777892 3.33572C0.777892 2.61049 1.03214 1.99363 1.54063 1.48513C2.04913 0.968302 2.72851 0.709887 3.57877 0.709887C4.42071 0.709887 5.08758 0.95163 5.57941 1.43512C6.07123 1.91027 6.31714 2.49795 6.31714 3.19817C6.31714 4.22349 5.80864 5.05709 4.79166 5.69896L3.19115 6.72428C2.61597 7.09107 2.2867 7.47035 2.20334 7.86214H6.36715V9H0.690364C0.707036 8.31645 0.861252 7.71626 1.15301 7.19943C1.4531 6.6826 1.94076 6.20745 2.61597 5.77398L3.9664 4.89871C4.7083 4.42356 5.07925 3.86088 5.07925 3.21068C5.07925 2.81055 4.94587 2.47294 4.67912 2.19786C4.41237 1.92277 4.03725 1.78523 3.55377 1.78523C3.04527 1.78523 2.65765 1.93944 2.3909 2.24787C2.12415 2.5563 1.99077 2.95643 1.99077 3.44825C1.99077 3.52327 1.99911 3.64415 2.01578 3.81086ZM8.0714 8.81244C7.90468 8.64572 7.82132 8.44149 7.82132 8.19975C7.82132 7.958 7.90468 7.75377 8.0714 7.58705C8.23812 7.412 8.44235 7.32447 8.68409 7.32447C8.92584 7.32447 9.13007 7.412 9.29679 7.58705C9.47184 7.75377 9.55937 7.958 9.55937 8.19975C9.55937 8.44149 9.47184 8.64572 9.29679 8.81244C9.13007 8.97916 8.92584 9.06252 8.68409 9.06252C8.44235 9.06252 8.23812 8.97916 8.0714 8.81244ZM8.0589 4.41105C7.89218 4.24433 7.80882 4.0401 7.80882 3.79836C7.80882 3.55662 7.89218 3.35239 8.0589 3.18567C8.22562 3.01061 8.42985 2.92308 8.67159 2.92308C8.91333 2.92308 9.11756 3.01061 9.28428 3.18567C9.45934 3.35239 9.54687 3.55662 9.54687 3.79836C9.54687 4.0401 9.45934 4.24433 9.28428 4.41105C9.11756 4.57777 8.91333 4.66113 8.67159 4.66113C8.42985 4.66113 8.22562 4.57777 8.0589 4.41105ZM10.9353 6.79931L12.1107 6.4492C12.144 6.94935 12.3274 7.35365 12.6608 7.66208C13.0026 7.97051 13.4277 8.12472 13.9362 8.12472C14.4281 8.12472 14.8407 7.97468 15.1741 7.67458C15.5076 7.37449 15.6743 6.97853 15.6743 6.48671C15.6743 5.95321 15.5076 5.54058 15.1741 5.24882C14.8407 4.95706 14.4239 4.81118 13.9237 4.81118C13.3152 4.81118 12.8234 5.00708 12.4483 5.39887C12.3316 5.35719 12.1398 5.28216 11.8731 5.17379C11.6063 5.06543 11.3979 4.98207 11.2479 4.92372L12.2982 0.897447H16.5746V2.0228H13.111L12.5108 4.34853C12.8692 3.94841 13.4194 3.74835 14.1613 3.74835C14.9699 3.74835 15.6284 3.99009 16.1369 4.47357C16.6538 4.95706 16.9122 5.61143 16.9122 6.43669C16.9122 7.22027 16.6371 7.87881 16.0869 8.41231C15.5367 8.93748 14.8198 9.20006 13.9362 9.20006C13.1026 9.20006 12.4066 8.96666 11.8481 8.49984C11.2979 8.03303 10.9936 7.46618 10.9353 6.79931ZM19.8988 2.3229C19.4236 2.82305 19.186 3.69833 19.186 4.94872C19.186 6.19912 19.4236 7.07439 19.8988 7.57455C20.2322 7.92466 20.6615 8.09972 21.1867 8.09972C21.7118 8.09972 22.1411 7.92466 22.4746 7.57455C22.9497 7.07439 23.1873 6.19912 23.1873 4.94872C23.1873 3.69833 22.9497 2.82305 22.4746 2.3229C22.1411 1.97279 21.7118 1.79773 21.1867 1.79773C20.6615 1.79773 20.2322 1.97279 19.8988 2.3229ZM18.6984 7.88715C18.2149 7.17026 17.9732 6.19078 17.9732 4.94872C17.9732 3.70667 18.2149 2.72719 18.6984 2.0103C19.2736 1.14336 20.103 0.709887 21.1867 0.709887C22.2703 0.709887 23.0998 1.14336 23.675 2.0103C24.1584 2.72719 24.4002 3.70667 24.4002 4.94872C24.4002 6.19078 24.1584 7.17026 23.675 7.88715C23.0998 8.75409 22.2703 9.18756 21.1867 9.18756C20.103 9.18756 19.2736 8.75409 18.6984 7.88715Z" fill="#B3B3B3"/>
</svg>
