<svg width="24" height="24" viewBox="0 0 24 24" fill="none" xmlns="http://www.w3.org/2000/svg">
<path fill-rule="evenodd" clip-rule="evenodd" d="M16.3929 16.3096L20.7858 21.4643L20.0239 22.1191L15.6191 16.9643C14.1032 18.1151 12.3968 18.6905 10.5 18.6905C9.34917 18.6905 8.24798 18.4663 7.19642 18.0179C6.14486 17.5695 5.24009 16.9663 4.48213 16.2084C3.72416 15.4505 3.12098 14.5457 2.67261 13.4941C2.22423 12.4425 2.00003 11.3413 2 10.1905C1.99997 9.03975 2.22417 7.93857 2.67261 6.88697C3.12105 5.83538 3.72422 4.93061 4.48213 4.17268C5.24003 3.41474 6.1448 2.81157 7.19642 2.36316C8.24805 1.91476 9.34924 1.69055 10.5 1.69055C11.6507 1.69055 12.7519 1.91476 13.8035 2.36316C14.8552 2.81157 15.7599 3.41474 16.5178 4.17268C17.2758 4.93061 17.8789 5.83538 18.3274 6.88697C18.7758 7.93857 19 9.03975 19 10.1905C19 11.3731 18.7698 12.4921 18.3095 13.5477C17.8492 14.6032 17.2103 15.5239 16.3928 16.3096L16.3929 16.3096ZM10.5001 17.6905C11.8572 17.6905 13.1112 17.3552 14.262 16.6845C15.4128 16.0138 16.3235 15.1031 16.9941 13.9523C17.6648 12.8016 18.0001 11.5476 18.0001 10.1904C18.0002 8.83329 17.6648 7.57932 16.9941 6.42854C16.3235 5.27775 15.4127 4.36705 14.262 3.69643C13.1112 3.0258 11.8573 2.69049 10.5001 2.69049C9.14289 2.69049 7.88892 3.0258 6.73817 3.69643C5.58742 4.36705 4.67672 5.27775 4.00606 6.42854C3.33541 7.57932 3.00009 8.83329 3.00013 10.1904C3.00016 11.5476 3.33547 12.8016 4.00606 13.9523C4.67666 15.1031 5.58736 16.0138 6.73817 16.6845C7.88898 17.3552 9.14295 17.6905 10.5001 17.6905Z" fill="#B3B3B3"/>
</svg>
