<svg width="32" height="32" viewBox="0 0 32 32" fill="none" xmlns="http://www.w3.org/2000/svg">
<g id="Frame">
<rect id="Rectangle 1" width="32" height="32" fill="url(#paint0_linear_3008_7)"/>
<path id="Vector" d="M21.7971 10.727C21.0807 10.0042 20.1189 9.57705 19.1024 9.53019C18.0859 9.48333 17.0889 9.82019 16.3091 10.474C16.2194 10.5417 16.1113 10.5807 15.9991 10.586C15.8861 10.5827 15.7772 10.5434 15.6881 10.474C14.9086 9.81982 13.9117 9.48271 12.8952 9.52957C11.8787 9.57644 10.917 10.0039 10.2011 10.727C9.43108 11.497 9.00708 12.521 9.00708 13.61C9.00708 14.699 9.43108 15.723 10.1751 16.465L14.6371 21.688C14.8052 21.8852 15.0142 22.0436 15.2495 22.1522C15.4848 22.2609 15.7409 22.3171 16.0001 22.3171C16.2593 22.3171 16.5154 22.2609 16.7507 22.1522C16.986 22.0436 17.1949 21.8852 17.3631 21.688L21.7981 16.493C22.1779 16.1153 22.4792 15.666 22.6843 15.1711C22.8894 14.6763 22.9944 14.1457 22.9931 13.61C22.9939 13.0743 22.8887 12.5437 22.6834 12.0489C22.4782 11.554 22.1769 11.1048 21.7971 10.727Z" fill="#C4C4C4"/>
</g>
<defs>
<linearGradient id="paint0_linear_3008_7" x1="0" y1="0" x2="27.5" y2="32" gradientUnits="userSpaceOnUse">
<stop stop-color="#27148F"/>
<stop offset="0.65219" stop-color="#605F9E"/>
<stop offset="1" stop-color="#86979A"/>
</linearGradient>
</defs>
</svg>
