<svg width="19" height="19" viewBox="0 0 19 19" fill="none" xmlns="http://www.w3.org/2000/svg">
<path d="M11.8179 2.24988C11.8179 1.17088 10.6719 0.599884 9.94691 1.31588L5.90531 5.30888C5.78195 5.43106 5.62256 5.49866 5.45735 5.49888H2.14797C1.61119 5.49888 1.09639 5.73594 0.716823 6.15789C0.33726 6.57985 0.124023 7.15215 0.124023 7.74888V12.2459C0.124023 12.8426 0.33726 13.4149 0.716823 13.8369C1.09639 14.2588 1.61119 14.4959 2.14797 14.4959H5.45824C5.62346 14.4961 5.78285 14.5637 5.90621 14.6859L9.94601 18.6799C10.671 19.3959 11.8179 18.8239 11.8179 17.7459V2.24988ZM6.80304 6.42988L10.4686 2.80688V17.1889L6.80304 13.5649C6.43261 13.1985 5.95407 12.996 5.45824 12.9959H2.14797C1.96904 12.9959 1.79744 12.9169 1.67092 12.7762C1.5444 12.6356 1.47332 12.4448 1.47332 12.2459V7.74988C1.47332 7.55097 1.5444 7.36021 1.67092 7.21955C1.79744 7.0789 1.96904 6.99988 2.14797 6.99988H5.45824C5.95407 6.99974 6.43261 6.79727 6.80304 6.43088V6.42988Z" fill="black"/>
<path d="M15.409 3.89678C15.4802 3.83821 15.5611 3.79581 15.6471 3.772C15.7331 3.74819 15.8224 3.74344 15.91 3.75802C15.9977 3.7726 16.0818 3.80622 16.1578 3.85697C16.2337 3.90771 16.2999 3.97459 16.3526 4.05378C17.4996 5.77367 18.1176 7.85873 18.1148 9.99978C18.1173 12.1409 17.499 14.226 16.3517 15.9458C16.243 16.0985 16.0851 16.1983 15.9115 16.2239C15.7378 16.2496 15.562 16.1991 15.4212 16.0833C15.2804 15.9674 15.1856 15.7952 15.157 15.6031C15.1284 15.4109 15.1681 15.2139 15.2677 15.0538C16.243 13.5921 16.7683 11.8197 16.7655 9.99978C16.7683 8.17987 16.243 6.40747 15.2677 4.94578C15.2151 4.86659 15.1769 4.77664 15.1555 4.68107C15.1341 4.5855 15.1298 4.48617 15.1429 4.38876C15.156 4.29135 15.1863 4.19777 15.2319 4.11335C15.2776 4.02894 15.3377 3.95535 15.409 3.89678Z" fill="black"/>
<path d="M13.7456 6.36978C13.8235 6.32281 13.9089 6.29336 13.9971 6.28312C14.0852 6.27287 14.1743 6.28204 14.2593 6.31008C14.3442 6.33813 14.4234 6.3845 14.4922 6.44657C14.561 6.50863 14.6182 6.58515 14.6604 6.67178C15.1425 7.66178 15.416 8.79678 15.416 9.99978C15.4175 11.1618 15.1578 12.3058 14.6604 13.3278C14.5752 13.5028 14.431 13.6331 14.2594 13.6899C14.0879 13.7467 13.903 13.7255 13.7456 13.6308C13.5881 13.5361 13.4709 13.3758 13.4198 13.185C13.3687 12.9943 13.3878 12.7888 13.473 12.6138C13.8508 11.8368 14.0667 10.9478 14.0667 9.99978C14.0667 9.05178 13.8508 8.16278 13.473 7.38578C13.4308 7.29911 13.4044 7.20405 13.3952 7.10603C13.3861 7.008 13.3944 6.90893 13.4197 6.81448C13.445 6.72003 13.4868 6.63205 13.5427 6.55557C13.5986 6.4791 13.6676 6.41562 13.7456 6.36878V6.36978Z" fill="black"/>
</svg>
