<svg width="38" height="38" viewBox="0 0 38 38" fill="none" xmlns="http://www.w3.org/2000/svg">
<rect width="38" height="38" fill="#E5E5E5"/>
<rect x="-37" y="-496" width="1728" height="1117" fill="white"/>
<rect x="-37" y="-495" width="371.801" height="982" fill="black"/>
<rect x="0.0565796" y="0.323242" width="37.0566" height="37.0566" rx="5" fill="#004638"/>
<path d="M13.6343 26.7873C12.5331 25.686 11.7831 24.2829 11.4793 22.7554C11.1754 21.2279 11.3314 19.6446 11.9274 18.2057C12.5234 16.7669 13.5327 15.537 14.8276 14.6718C16.1226 13.8065 17.6451 13.3447 19.2025 13.3447C20.7599 13.3447 22.2824 13.8065 23.5773 14.6718C24.8723 15.537 25.8816 16.7669 26.4776 18.2057C27.0736 19.6446 27.2296 21.2279 26.9257 22.7554C26.6219 24.2829 25.8719 25.686 24.7707 26.7873L26.0078 28.0245C26.9029 27.1318 27.6127 26.071 28.0965 24.9031C28.5803 23.7352 28.8285 22.4833 28.8269 21.2192C28.8269 15.9038 24.5178 11.5947 19.2025 11.5947C13.8872 11.5947 9.57806 15.9038 9.57806 21.2192C9.57806 23.8772 10.6551 26.2833 12.3971 28.0245L13.6343 26.7873Z" fill="#159643"/>
<path d="M23.5335 25.5502C24.39 24.6936 24.9732 23.6023 25.2095 22.4142C25.4458 21.2262 25.3245 19.9948 24.8609 18.8757C24.3973 17.7566 23.6123 16.8001 22.6051 16.1271C21.5979 15.4542 20.4138 15.095 19.2025 15.095C17.9912 15.095 16.8071 15.4542 15.7999 16.1271C14.7927 16.8001 14.0077 17.7566 13.5442 18.8757C13.0806 19.9948 12.9593 21.2262 13.1955 22.4142C13.4318 23.6023 14.015 24.6936 14.8715 25.5502L16.1096 24.313C15.4978 23.7012 15.0811 22.9217 14.9123 22.073C14.7435 21.2244 14.8301 20.3448 15.1612 19.5454C15.4923 18.746 16.053 18.0628 16.7725 17.5821C17.4919 17.1014 18.3377 16.8448 19.203 16.8448C20.0682 16.8448 20.914 17.1014 21.6334 17.5821C22.3529 18.0628 22.9136 18.746 23.2447 19.5454C23.5758 20.3448 23.6624 21.2244 23.4936 22.073C23.3248 22.9217 22.9082 23.7012 22.2963 24.313L23.5335 25.5502Z" fill="#159643"/>
<path d="M21.0583 23.075C21.4253 22.7079 21.6752 22.2402 21.7765 21.731C21.8777 21.2218 21.8257 20.6941 21.627 20.2145C21.4284 19.7349 21.0919 19.325 20.6603 19.0366C20.2286 18.7482 19.7212 18.5942 19.2021 18.5942C18.6829 18.5942 18.1755 18.7482 17.7438 19.0366C17.3122 19.325 16.9757 19.7349 16.7771 20.2145C16.5784 20.6941 16.5264 21.2218 16.6276 21.731C16.7289 22.2402 16.9788 22.7079 17.3459 23.075L18.5839 21.8378C18.4615 21.7154 18.3782 21.5595 18.3444 21.3898C18.3106 21.2201 18.3279 21.0441 18.3941 20.8843C18.4603 20.7244 18.5725 20.5877 18.7164 20.4915C18.8603 20.3954 19.0294 20.3441 19.2025 20.3441C19.3756 20.3441 19.5447 20.3954 19.6886 20.4915C19.8325 20.5877 19.9446 20.7244 20.0109 20.8843C20.0771 21.0441 20.0944 21.2201 20.0606 21.3898C20.0268 21.5595 19.9435 21.7154 19.8211 21.8378L21.0583 23.075Z" fill="#159643"/>
</svg>
