<svg width="22" height="11" viewBox="0 0 22 11" fill="none" xmlns="http://www.w3.org/2000/svg">
<path d="M0.714 10V8.698C1.31133 8.20333 1.89 7.71333 2.45 7.228C3.01933 6.74267 3.52333 6.262 3.962 5.786C4.41 5.31 4.76467 4.848 5.026 4.4C5.29667 3.94267 5.432 3.49933 5.432 3.07C5.432 2.66867 5.32 2.314 5.096 2.006C4.88133 1.698 4.522 1.544 4.018 1.544C3.50467 1.544 3.11733 1.712 2.856 2.048C2.59467 2.384 2.464 2.79 2.464 3.266H0.728C0.746667 2.54733 0.905333 1.95 1.204 1.474C1.50267 0.988666 1.89933 0.629333 2.394 0.395999C2.88867 0.153333 3.444 0.0319998 4.06 0.0319998C5.05867 0.0319998 5.83333 0.307333 6.384 0.857999C6.944 1.39933 7.224 2.104 7.224 2.972C7.224 3.51333 7.098 4.04067 6.846 4.554C6.60333 5.06733 6.28133 5.562 5.88 6.038C5.47867 6.514 5.04467 6.962 4.578 7.382C4.11133 7.79267 3.65867 8.17533 3.22 8.53H7.462V10H0.714ZM10.238 10.098C9.91138 10.098 9.64071 9.99533 9.42605 9.79C9.22071 9.58467 9.11805 9.33733 9.11805 9.048C9.11805 8.74933 9.22071 8.49733 9.42605 8.292C9.64071 8.08667 9.91138 7.984 10.238 7.984C10.5647 7.984 10.8307 8.08667 11.036 8.292C11.2507 8.49733 11.358 8.74933 11.358 9.048C11.358 9.33733 11.2507 9.58467 11.036 9.79C10.8307 9.99533 10.5647 10.098 10.238 10.098ZM10.238 5.002C9.91138 5.002 9.64071 4.89933 9.42605 4.694C9.22071 4.48867 9.11805 4.24133 9.11805 3.952C9.11805 3.65333 9.22071 3.40133 9.42605 3.196C9.64071 2.99067 9.91138 2.888 10.238 2.888C10.5647 2.888 10.8307 2.99067 11.036 3.196C11.2507 3.40133 11.358 3.65333 11.358 3.952C11.358 4.24133 11.2507 4.48867 11.036 4.694C10.8307 4.89933 10.5647 5.002 10.238 5.002ZM14.5247 10V2.244L12.9147 2.622V1.25L15.2807 0.199999H16.3867V10H14.5247ZM19.9108 10V2.244L18.3008 2.622V1.25L20.6668 0.199999H21.7728V10H19.9108Z" fill="#C4C4C4"/>
</svg>
