<svg width="8" height="12" viewBox="0 0 8 12" fill="none" xmlns="http://www.w3.org/2000/svg">
<path opacity="0.7" d="M1.85696 4.23113L0.190961 4.02713C0.179628 3.92513 0.173961 3.7778 0.173961 3.58513C0.173961 2.59913 0.519628 1.76047 1.21096 1.06913C1.90229 0.366466 2.82596 0.015132 3.98196 0.015132C5.12663 0.015132 6.03329 0.343799 6.70196 1.00113C7.37063 1.64713 7.70496 2.44613 7.70496 3.39813C7.70496 4.79213 7.01363 5.92547 5.63096 6.79813L3.45496 8.19213C2.67296 8.6908 2.22529 9.20647 2.11196 9.73913H7.77296V11.2861H0.0549609C0.0776276 10.3568 0.287294 9.5408 0.683961 8.83813C1.09196 8.13547 1.75496 7.48947 2.67296 6.90013L4.50896 5.71013C5.51763 5.06413 6.02196 4.29913 6.02196 3.41513C6.02196 2.87113 5.84063 2.41213 5.47796 2.03813C5.11529 1.66413 4.60529 1.47713 3.94796 1.47713C3.25663 1.47713 2.72963 1.6868 2.36696 2.10613C2.00429 2.52547 1.82296 3.06947 1.82296 3.73813C1.82296 3.84013 1.83429 4.00447 1.85696 4.23113Z" fill="white"/>
</svg>
