<svg width="29" height="11" viewBox="0 0 29 11" fill="none" xmlns="http://www.w3.org/2000/svg">
<path opacity="0.7" d="M1.88404 3.775L0.414043 3.595C0.404043 3.505 0.399043 3.375 0.399043 3.205C0.399043 2.335 0.704043 1.595 1.31404 0.985C1.92404 0.364999 2.73904 0.0549993 3.75904 0.0549993C4.76904 0.0549993 5.56904 0.344999 6.15904 0.925C6.74904 1.495 7.04404 2.2 7.04404 3.04C7.04404 4.27 6.43404 5.27 5.21404 6.04L3.29404 7.27C2.60404 7.71 2.20904 8.165 2.10904 8.635H7.10404V10H0.294043C0.314043 9.18 0.499043 8.46 0.849043 7.84C1.20904 7.22 1.79404 6.65 2.60404 6.13L4.22404 5.08C5.11404 4.51 5.55904 3.835 5.55904 3.055C5.55904 2.575 5.39904 2.17 5.07904 1.84C4.75904 1.51 4.30904 1.345 3.72904 1.345C3.11904 1.345 2.65404 1.53 2.33404 1.9C2.01404 2.27 1.85404 2.75 1.85404 3.34C1.85404 3.43 1.86404 3.575 1.88404 3.775ZM9.1485 9.775C8.9485 9.575 8.8485 9.33 8.8485 9.04C8.8485 8.75 8.9485 8.505 9.1485 8.305C9.3485 8.095 9.5935 7.99 9.8835 7.99C10.1735 7.99 10.4185 8.095 10.6185 8.305C10.8285 8.505 10.9335 8.75 10.9335 9.04C10.9335 9.33 10.8285 9.575 10.6185 9.775C10.4185 9.975 10.1735 10.075 9.8835 10.075C9.5935 10.075 9.3485 9.975 9.1485 9.775ZM9.1335 4.495C8.9335 4.295 8.8335 4.05 8.8335 3.76C8.8335 3.47 8.9335 3.225 9.1335 3.025C9.3335 2.815 9.5785 2.71 9.8685 2.71C10.1585 2.71 10.4035 2.815 10.6035 3.025C10.8135 3.225 10.9185 3.47 10.9185 3.76C10.9185 4.05 10.8135 4.295 10.6035 4.495C10.4035 4.695 10.1585 4.795 9.8685 4.795C9.5785 4.795 9.3335 4.695 9.1335 4.495ZM12.5841 7.81V6.115L16.7541 0.28H18.7791V6.445H20.4441V7.81H18.7791V10H17.3541V7.81H12.5841ZM17.3541 6.445V1.69L13.9341 6.445H17.3541ZM21.1974 7.36L22.6074 6.94C22.6474 7.54 22.8674 8.025 23.2674 8.395C23.6774 8.765 24.1874 8.95 24.7974 8.95C25.3874 8.95 25.8824 8.77 26.2824 8.41C26.6824 8.05 26.8824 7.575 26.8824 6.985C26.8824 6.345 26.6824 5.85 26.2824 5.5C25.8824 5.15 25.3824 4.975 24.7824 4.975C24.0524 4.975 23.4624 5.21 23.0124 5.68C22.8724 5.63 22.6424 5.54 22.3224 5.41C22.0024 5.28 21.7524 5.18 21.5724 5.11L22.8324 0.28H27.9624V1.63H23.8074L23.0874 4.42C23.5174 3.94 24.1774 3.7 25.0674 3.7C26.0374 3.7 26.8274 3.99 27.4374 4.57C28.0574 5.15 28.3674 5.935 28.3674 6.925C28.3674 7.865 28.0374 8.655 27.3774 9.295C26.7174 9.925 25.8574 10.24 24.7974 10.24C23.7974 10.24 22.9624 9.96 22.2924 9.4C21.6324 8.84 21.2674 8.16 21.1974 7.36Z" fill="white"/>
</svg>
